<svg xmlns="http://www.w3.org/2000/svg" width="34" height="32" fill="none" viewBox="0 0 34 32">
  <path fill="#008C33" d="M30.415 12.944c-.977-.615-2.26-.814-3.02-.868l.308-2.93h-3.074c1.085-1.265 2.55-2.693 1.808-3.434-.723-.723-3.435.904-4.7 2.35-.362-.904-1.085-.904-1.085-.904S19.929 3 15.536 3c-4.936 0-6.49 4.339-6.6 6.328-.686-1.266-1.301-1.989-2.024-1.989-.542 0-1.266.09-1.989.633 0-.271-2.892-2.08-3.435-1.356-.723.976.904 2.712.904 2.712L1 23.502a2.257 2.257 0 002.242 2.477l3.272.018c.235.94.814 2.043 2.314 2.133 1.103.072 2.314-.488 2.893-2.115l12.692.072c.216.85.813 2.043 2.422 2.043 1.681 0 2.405-1.211 2.694-2.025h1.32c.687 0 1.283-.506 1.356-1.211l.74-6.509c.019-.144.037-.27.055-.416.18-2.494-1.139-4.122-2.585-5.026zM18.302 7.88s-.723-1.084-1.989-1.084c-1.265 0-2.17.904-2.531 1.627-.723-.723-1.085-.723-1.627-.723s-1.573.904-1.591 1.446h-.398s.18-4.52 5.062-5.062c2.17-.181 3.797 1.808 4.34 3.073-.543-.361-1.266.723-1.266.723zm9.582 10.125a.989.989 0 01-.977-1.085l.38-3.706c1.23.162 2.784.596 3.49 1.717.723 1.157.921 2.061.903 3.074h-3.796z"/>
  <path fill="#fff" fill-rule="evenodd" d="M7.786 13.783a9.164 9.164 0 01-.404-.225c.025-.056.051-.103.077-.148a.662.662 0 00.104-.268c0-.415.162-.596.614-.687.741-.162 1.23-1.03 1.03-1.771-.054-.253-.307-.579-.542-.67-.199-.072-.632.037-.759.218-.292.39-.52.822-.767 1.29-.073.14-.148.282-.227.427-.29-.163-.67-.38-1.049-.597-.307.561 0 .868 1.175 1.266-.054.271-.108.542-.144.687-.241.041-.476.077-.706.111-.478.072-.934.14-1.373.25-.181.055-.434.344-.434.525.018.217.217.47.397.633.145.126.398.162.597.18.76.09 1.374-.216 1.862-.85.085.054.166.108.245.161.194.129.377.251.569.328.096.036.215.024.338.012.062-.006.125-.012.186-.012-.025-.063-.041-.132-.057-.2-.03-.126-.06-.247-.142-.306-.179-.134-.378-.24-.59-.354zm.482-3.334c.614.795.361 1.392-.651 1.645.13-.338.255-.65.384-.974l.267-.671zm-1.772 3.525a36.33 36.33 0 01-1.61.18c.561.435 1.266.344 1.61-.18z" clip-rule="evenodd"/>
  <path fill="#fff" d="M25.642 12.817a1.613 1.613 0 00-.007.157c-.001.128-.002.26-.066.35-.343.505-1.68.813-2.223.505-.127-.072-.253-.289-.217-.397.036-.109.29-.272.38-.235.307.126.65.235.74-.181.037-.145-.072-.315-.198-.509-.061-.095-.127-.197-.18-.305-.157.169-.3.321-.436.465-.243.257-.46.485-.668.729-.542.614-.886.668-1.609.307-.09-.036-.253-.054-.307 0-.398.38-.777.343-1.121-.054-.741.506-.994.488-1.41 0-.13.023-.256.047-.378.07-.441.083-.843.158-1.267.2-.163.019-.47-.144-.507-.27-.054-.272.09-.434.434-.272.055.037.326-.162.344-.289.072-.29.072-.615 0-.922-.947.541-1.091 1.409-1.234 2.272-.067.406-.135.811-.285 1.181a.641.641 0 01-.18.036c-.028-.06-.063-.121-.098-.182-.082-.142-.163-.282-.138-.396.29-1.211.615-2.405.959-3.598.012-.062.085-.107.158-.153.033-.02.067-.041.095-.064.09.163.18.326.289.488.596-.235.94-.18 1.066.308.076.276.055.586.036.884-.009.13-.017.26-.017.381.632-.29.94-1.066.632-1.735-.036-.09-.072-.272-.036-.326.38-.416.778-.795 1.284-1.157-.09.325-.181.651-.29 1.03.039 0 .075-.002.11-.004a.552.552 0 01.162.005c.144.072.289.162.434.253-.127.09-.253.18-.398.253a1.641 1.641 0 01-.3.086c-.143.032-.268.06-.279.113-.09.434-.09.886-.09 1.338 0 .072.29.216.362.162.216-.126.452-.307.56-.506.068-.127.1-.28.131-.435.027-.13.054-.262.104-.379.059-.117.19-.211.315-.3l.083-.061c.01.046.023.093.037.14.033.116.066.232.053.348-.01.144-.05.282-.088.418-.03.103-.059.204-.075.305-.01.093-.002.186.006.29.006.077.013.16.013.253.614-.344.903-1.266.65-1.845-.036-.072-.054-.18-.018-.217.344-.397.705-.795 1.067-1.175.034-.033.095-.032.171-.03.047 0 .1.001.154-.006-.103.26-.198.482-.296.714l-.001.002-.118.279.106.01c.114.01.185.016.255.044.056.024.111.054.168.086.073.04.149.082.23.113a1.614 1.614 0 00-.13.095c-.1.077-.198.152-.286.14-.416-.036-.615.126-.633.542a1.059 1.059 0 01-.046.19c-.033.107-.067.215-.044.316.036.235.09.56.235.633.145.072.506-.036.633-.199.361-.452.687-.94.958-1.446.163-.308.398-.47.832-.38l-.217.434c1.066.796 1.084.832.795 1.681.217-.198.452-.397.669-.578.035-.012.07-.008.11-.005a.69.69 0 00.07.005z"/>
  <path fill="#fff" fill-rule="evenodd" d="M10.329 18.53c-.778.578-1.067.578-1.61 0l-.1.06c-.597.362-1.185.718-1.87.085-.072-.055-.307.036-.452.108-.886.47-1.808.434-2.35-.127a.099.099 0 00-.02-.014c-.01-.006-.016-.01-.016-.022-.434-.47-.362-1.103.253-1.916.398-.542 1.175-.85 1.609-.597.307.181.56.452.434.85-.04.117-.143.205-.245.293-.04.034-.08.069-.117.105-.027-.041-.06-.08-.092-.118-.054-.064-.11-.129-.143-.208-.217-.452-.434-.488-.76-.108-.162.18-.325.398-.379.633-.163.74.506 1.12 1.356.795.398-.145.705-.38.85-.85.325-1.012 1.211-1.5 2.296-1.355.062.01.14.019.22.029.223.027.467.057.467.097.018.398-.036.814-.109 1.211-.014.075-.056.152-.098.229-.122.22-.248.448.261.675.065-.11.138-.222.211-.334.13-.2.264-.404.368-.624.434-.976 1.102-1.374 2.151-1.302.097.012.202-.056.348-.152.072-.048.153-.101.249-.155.023.07.058.143.093.215.073.152.148.307.124.454-.113.65-.252 1.292-.392 1.944-.063.29-.126.581-.187.876.11.056.208.098.283.13.048.02.087.037.115.051l-.18.446c-.112.28-.22.546-.326.82-.2.524-.67.813-1.284.777-.633-.036-1.248-.434-1.374-.886-.145-.56.307-1.048 1.12-1.193a.786.786 0 01.197-.004c.032.002.064.004.093.004.367-.018.552-.027.657-.123.106-.099.13-.289.175-.672-1.212.506-1.212.506-1.826-.127zm-1.465-1.754c-.723-.144-1.446.326-1.5.977a.629.629 0 00.199.488c.09.072.307.036.452 0 .572-.154.66-.588.753-1.052.027-.137.055-.277.096-.413zm3.76.109c-.813-.29-1.21-.073-1.572.596-.199.398-.145.687.434.922.266-.332.531-.693.819-1.084v-.001l.32-.433zm-2.115 3.362c.362.489.742.706 1.158.543.14-.052.227-.258.311-.457.034-.082.068-.162.104-.23l-.144-.145c-.434.09-.886.181-1.429.29z" clip-rule="evenodd"/>
  <path fill="#fff" fill-rule="evenodd" d="M15.885 18.752c.16-.056.326-.113.5-.168.416.524.922.651 1.61.326.943-.448 1.068-1.304 1.18-2.07l.03-.208a25.363 25.363 0 01-.191-.125 6.393 6.393 0 00-.441-.273 1.736 1.736 0 01-.17-.103c-.124-.081-.248-.163-.372-.15-.886.054-1.682.777-1.88 1.645-.019.127-.073.29-.181.38-.525.416-1.121.47-1.628.343l.27-.256c.37-.35.749-.708 1.068-1.1.127-.126.055-.56-.072-.705-.163-.18-.524-.343-.741-.29-.362.073-.742.29-1.049.525-.47.362-.76 1.374-.524 1.844.307.597.868.796 1.5.687.367-.05.716-.172 1.09-.302zm2.262-1.54c.071.077.146.158.227.233-.271.723-.65 1.067-1.067.922-.397-.163-.542-.633-.27-1.066.144-.217.451-.489.632-.452.165.025.312.184.478.363zm-4.021.54l-.217-.216.158-.184c.196-.227.387-.448.6-.648.037-.036.112-.024.19-.012.04.006.081.012.118.012 0 .021 0 .044.002.067.002.095.006.197-.038.24-.15.15-.314.295-.479.44-.112.1-.225.199-.335.302z" clip-rule="evenodd"/>
  <path fill="#fff" d="M24.177 18.331c.137-.113.277-.225.42-.34.177-.142.358-.287.538-.437.272.253.272.524-.018.759l-.03.025c-.441.372-.889.748-1.56.535-.09-.033-.2-.011-.309.01-.068.013-.135.027-.198.027a3.843 3.843 0 00-.139-.009c-.184-.008-.382-.017-.512-.118-.096-.072-.144-.209-.192-.345-.025-.069-.049-.137-.079-.197.067-.018.133-.04.2-.063a1.8 1.8 0 01.397-.1c.093-.008.194.019.29.044.108.03.211.057.288.028.362-.144.38-.56.09-.831a3.017 3.017 0 00-.325-.271c-.06-.046-.116-.087-.162-.127-.167.185-.328.373-.487.559-.307.358-.608.71-.942 1.032-.614.596-1.102.669-1.645.343-.398-.235-.596-.922-.47-1.554.019-.101.047-.2.074-.297.051-.182.1-.358.089-.535-.009-.136-.065-.268-.12-.398-.063-.146-.125-.29-.115-.434.007-.107.106-.136.222-.17.157-.047.343-.102.374-.372.027-.226.249-.432.465-.633.078-.073.155-.145.222-.217a.74.74 0 01.1.064c.031.022.063.045.1.063l-.069.269c-.067.268-.135.535-.203.834.082.006.157.005.224.005a.703.703 0 01.282.03.699.699 0 01.246.142c.044.034.088.067.134.094a3.2 3.2 0 00-.082.117c-.083.12-.171.249-.28.317-.066.044-.167.034-.269.024a.845.845 0 00-.183-.006c-.126.018-.325.09-.325.162-.013.129-.03.258-.046.388-.052.401-.104.807-.063 1.203.055.434.507.579.832.29.076-.07.154-.139.232-.208.57-.504 1.149-1.017 1.196-1.908.018-.198.29-.451.507-.56.235-.127.506 0 .361.325-.144.344-.036.507.271.633.071.024.134.07.194.115.033.024.064.047.096.066.65.434.74.85.307 1.537 0 0 .036.054.072.09zM9.768 14.245c.114-.043.237-.078.361-.114.29-.082.583-.166.76-.356.225-.236.386-.527.55-.822.1-.18.201-.362.318-.534.107-.16.234-.31.358-.459l.13-.155c.027.018.059.036.09.054.032.018.064.036.091.054l-.027.262c-.01.086-.018.172-.027.262.976.651 1.012.705.669 1.664.144-.13.27-.24.384-.34.157-.139.293-.258.43-.384.18.507.126.615-.417.94-.506.308-1.5.2-1.97-.289.07-.029.144-.067.216-.103.154-.079.295-.15.344-.114.39.293.49.081.599-.147.032-.069.065-.138.106-.196-.1-.09-.199-.176-.298-.262-.1-.086-.199-.172-.298-.262l-.356.457c-.155.2-.313.405-.476.61-.398.487-.922.668-1.537.65-.65-.036-.976-.416-.904-1.067.073-.596.705-1.247 1.248-1.265.542-.018.832.343.542.795-.16.266-.407.483-.656.702-.09.079-.18.157-.266.238l.011.043a.55.55 0 01.025.138zM13.294 20.573c.56-.308 10.576-.271 10.883.018-.325.307-10.467.325-10.883-.018zM9.588 20.555c-.09.042-.17.084-.239.122-.14.075-.244.13-.34.13-1.482.019-2.983.019-4.466 0-.087 0-.183-.068-.275-.134-.042-.03-.083-.06-.122-.082.033-.022.068-.051.104-.08.08-.067.164-.137.24-.137 1.071-.012 2.135-.008 3.202-.004.534.002 1.07.004 1.606.004.02 0 .033.01.076.04.038.027.101.072.214.14zM20.663 10.738a15.55 15.55 0 01-.59.163c.217.434.416.596.67.307.072-.085.08-.21.088-.337.004-.064.008-.127.02-.187l-.188.054z"/>
  <g>
    <path fill="#D4C212" d="M4.07 23.15c-.152-.397-.297-.776-.448-1.185.112-.009.22-.013.325-.018.113-.004.222-.009.325-.018v1.103c.046.009.086.013.127.018.04.004.081.009.127.018.108-.344.216-.687.343-1.085h.56c-.38.615-.723 1.175-1.102 1.844l-.258-.677z"/>
    <path fill="#D4C212" fill-rule="evenodd" d="M7.924 22.977l.008.093c.016.192.034.407.065.703-.139-.023-.299-.032-.458-.04-.34-.018-.673-.035-.772-.195-.18-.29-.361-.904.145-1.302.262.393.61.394.982.395.193 0 .393.002.59.057-.162.09-.325.18-.56.29zm-.506.597c.036-.018.068-.032.1-.045.031-.014.063-.027.099-.045a49.321 49.321 0 00-.163-.742c-.104.07-.203.143-.317.227-.123.09-.263.193-.442.316.38.144.56.217.723.289z" clip-rule="evenodd"/>
    <path fill="#D4C212" d="M24.123 22.58h-.958c.036.09.054.144.036.18-.036.272-.108.742-.145.742-.335-.024-.29-.183-.242-.35.025-.086.05-.174.025-.247-.023-.105-.091-.187-.161-.272a1.321 1.321 0 01-.11-.144.355.355 0 00-.1.059l-.044.032c.013.052.029.106.045.159.095.312.188.618-.353.726a22.605 22.605 0 00-.054-.813c-.188-.072-.359-.13-.522-.186a12.522 12.522 0 01-.49-.176c-.217.217-.362 1.049-.127 1.266.07.07.194.095.312.119.064.012.125.025.176.044a5.666 5.666 0 00-.09-.248c-.076-.197-.135-.35-.109-.494.013-.073.141-.13.296-.199.074-.032.153-.067.229-.108 0 .097-.004.183-.007.26-.007.168-.012.292.025.39.054.164.199.38.325.399.387.026.783.023 1.248.02l.524-.002c-.526-.476-.254-.683.006-.88.114-.087.226-.172.265-.277zM14.27 23.52c-.235-.904-.235-.904-1.265-.958l.006.019c.125.374.255.764-.314 1.102 0-.121.008-.232.016-.333.014-.202.026-.367-.034-.5-.072-.144-.325-.27-.506-.288-.078-.016-.183.157-.268.297l-.04.064c-.04.05-.058.118-.075.183-.014.052-.027.103-.051.143-.199.343.018.506.271.524.323.013.646-.02.969-.054.129-.013.258-.026.387-.037.021-.464.03-.657.13-.745.073-.062.191-.071.394-.086-.036.29-.072.56-.126.85h1.139c-.084-.826-.103-1.013-.191-1.055-.026-.012-.058-.012-.098-.012-.03.175-.064.34-.098.504-.03.138-.058.277-.083.418a.525.525 0 00-.082-.018c-.027-.005-.054-.01-.08-.018z"/>
    <path fill="#D4C212" fill-rule="evenodd" d="M10.835 24.243l-.199-.398c.099-.04.195-.072.286-.1.19-.063.351-.115.437-.225.127-.181.181-.67.109-.705-.253-.14-.55-.216-.822-.285l-.227-.059c-.054.651-.108 1.212-.162 1.772h.578zm-.036-.75c-.05-.027-.1-.055-.145-.082.09-.217.181-.416.271-.614.064.036.123.072.181.108l.181.109-.171.28c-.06.094-.118.19-.172.28-.046-.027-.095-.054-.145-.081z" clip-rule="evenodd"/>
    <path fill="#D4C212" d="M24.54 23.448c0-.055 0-.109.017-.145.145-.018.29-.036.416-.073.084-.024.169-.064.253-.104.042-.02.084-.04.127-.058-.022-.044-.04-.092-.06-.141-.043-.114-.087-.23-.175-.293-.272-.199-.525-.163-.742.127-.199.27-.343.524-.054.813.29.307.597.29.958-.054a19.63 19.63 0 00-.74-.072zM19.224 23.683h-.452l.05-.119c.058-.135.113-.261.113-.388 0-.087-.052-.183-.102-.275-.022-.042-.044-.083-.061-.122-.03.036-.064.07-.098.103-.067.067-.131.132-.155.204-.027.135-.024.28-.02.434l.002.163h-.452c.018-.19.031-.376.045-.561.013-.185.027-.37.045-.56.994-.055.994-.055 1.085 1.12z"/>
    <path fill="#D4C212" fill-rule="evenodd" d="M6.108 22.64a4.772 4.772 0 01-.3-.368c-.103.143-.204.264-.295.374-.164.197-.297.356-.355.53-.09.416.307.651.597.579.175-.05.35-.23.47-.43.03-.015.06-.028.09-.04l-.035-.06c.03-.059.053-.118.071-.175.035-.092-.083-.227-.243-.41zm.172.585a1.442 1.442 0 01-.054.1 8.51 8.51 0 00-.051.023c-.133.064-.264.126-.384.1-.09 0-.271-.2-.271-.308 0-.108.144-.307.253-.343.063-.013.163.055.26.121.041.028.082.056.12.078.042.084.084.158.127.23z" clip-rule="evenodd"/>
    <path fill="#D4C212" d="M9.118 23.357c.072-.307.108-.434.144-.56l-.057-.012c-.084-.018-.181-.04-.196-.024a9.1 9.1 0 00-.217.723h.723c0 .027.005.058.01.09.004.032.008.063.008.09-.073.006-.153.02-.232.035-.172.032-.343.064-.455.002-.18-.109-.343-.452-.307-.633.072-.235.344-.488.56-.543.1-.024.24.12.377.26.064.064.126.128.184.174-.127.127-.29.235-.542.398zM15.825 22.779c.036.144.072.289.126.56l.109-.14c.081-.106.153-.2.217-.276a2.062 2.062 0 01-.18-.15c-.131-.117-.264-.236-.363-.211-.216.054-.47.307-.506.506-.036.18.127.506.29.633.102.077.279.044.45.012.07-.013.138-.025.2-.03 0-.028-.004-.06-.009-.09a.682.682 0 01-.009-.091h-.705c.163-.29.271-.506.38-.723z"/>
    <path fill="#D4C212" fill-rule="evenodd" d="M20.397 23.709c-.167.026-.317.05-.468.064-.362.036-.524-.235-.362-.56l.021-.031c.038-.053.085-.12.07-.15-.217-.452.18-.543.415-.507.163.019.326.326.416.543.032.095.04.21.047.335.005.088.01.183.026.28l-.165.026zm-.504-.117h.235l.054-.85c-.09 0-.18 0-.271-.018-.018.29-.018.579-.018.868z" clip-rule="evenodd"/>
    <path fill="#D4C212" d="M17.47 22.598h-.85l-.038.35c-.025.234-.053.493-.088.753h.524c-.01-.093-.048-.196-.086-.296-.111-.29-.215-.563.43-.536.036 0 .09-.199.108-.271z"/>
  </g>
</svg>
